<svg width="56" height="56" viewBox="0 0 56 56" fill="none" xmlns="http://www.w3.org/2000/svg">
<rect x="0.884298" y="0.884298" width="54.2314" height="54.2314" rx="27.1157" stroke="#303030" stroke-width="1.7686"/>
<path d="M20.6031 38.4234C21.775 38.4234 24.4188 37.2797 26.275 35.9765C26.4906 35.8359 26.65 35.789 26.8375 35.789C26.95 35.7984 27.0438 35.7984 27.1094 35.7984C33.8969 35.789 39.25 32.3203 39.25 26.6953C39.25 21.6515 34.2438 17.5922 28 17.5922C21.7563 17.5922 16.75 21.6515 16.75 26.6953C16.75 29.7328 18.5125 32.5265 21.7 34.2703C21.925 34.3922 21.9719 34.5328 21.8594 34.7484C21.2781 35.7234 20.3969 36.7265 20.0125 37.2234C19.5156 37.8422 19.8063 38.4234 20.6031 38.4234Z" fill="#00DCDC"/>
</svg>
