<svg width="56" height="56" viewBox="0 0 56 56" fill="none" xmlns="http://www.w3.org/2000/svg">
<rect width="56" height="56" rx="28" fill="#00DCDC"/>
<path d="M23.3096 33.2361C26.7949 36.7328 30.9978 39.3981 34.4148 39.3981C35.9524 39.3981 37.2964 38.8741 38.3785 37.6668C39.0049 36.972 39.358 36.1861 39.358 35.3888C39.358 34.7168 39.096 34.079 38.4582 33.6234L34.9387 31.1176C34.3692 30.7076 33.8908 30.5253 33.4694 30.5253C32.9113 30.5253 32.4215 30.8328 31.8862 31.3796L31.0433 32.211C30.9067 32.3477 30.7472 32.3933 30.5877 32.3933C30.4055 32.3933 30.2233 32.3249 30.098 32.2566C29.369 31.8465 28.1047 30.7645 26.943 29.6027C25.7926 28.441 24.6992 27.1881 24.2891 26.4477C24.2208 26.3224 24.1524 26.1402 24.1524 25.958C24.1524 25.8099 24.198 25.6504 24.3347 25.5137L25.1775 24.6709C25.7129 24.1242 26.0204 23.6344 26.0204 23.0763C26.0204 22.6549 25.8381 22.1765 25.4281 21.607L22.9337 18.1103C22.4781 17.4725 21.8289 17.1991 21.1341 17.1991C20.3368 17.1991 19.5509 17.5294 18.8675 18.1786C17.683 19.2721 17.1704 20.6389 17.1704 22.1537C17.1704 25.5821 19.8129 29.7508 23.3096 33.2361Z" fill="black"/>
</svg>
